<svg width="35" height="34" viewBox="0 0 35 34" fill="none" xmlns="http://www.w3.org/2000/svg">
<g clip-path="url(#clip0_2318_8)">
<path d="M17.5996 22.3125C20.5336 22.3125 22.9121 19.934 22.9121 17C22.9121 14.066 20.5336 11.6875 17.5996 11.6875C14.6656 11.6875 12.2871 14.066 12.2871 17C12.2871 19.934 14.6656 22.3125 17.5996 22.3125Z" stroke="white" stroke-linecap="round" stroke-linejoin="round"/>
<path d="M23.9746 4.25H11.2246C7.70379 4.25 4.84961 7.10418 4.84961 10.625V23.375C4.84961 26.8958 7.70379 29.75 11.2246 29.75H23.9746C27.4954 29.75 30.3496 26.8958 30.3496 23.375V10.625C30.3496 7.10418 27.4954 4.25 23.9746 4.25Z" stroke="white" stroke-linecap="round" stroke-linejoin="round"/>
<path d="M24.5059 11.4219C25.2394 11.4219 25.834 10.8273 25.834 10.0938C25.834 9.36025 25.2394 8.76562 24.5059 8.76562C23.7724 8.76562 23.1777 9.36025 23.1777 10.0938C23.1777 10.8273 23.7724 11.4219 24.5059 11.4219Z" fill="white"/>
</g>
<defs>
<clipPath id="clip0_2318_8">
<rect width="34" height="34" fill="white" transform="translate(0.599609)"/>
</clipPath>
</defs>
</svg>
